%TF.GenerationSoftware,KiCad,Pcbnew,9.0.7*%
%TF.CreationDate,2026-03-17T22:26:58+05:30*%
%TF.ProjectId,rcphase,72637068-6173-4652-9e6b-696361645f70,rev?*%
%TF.SameCoordinates,Original*%
%TF.FileFunction,Legend,Top*%
%TF.FilePolarity,Positive*%
%FSLAX46Y46*%
G04 Gerber Fmt 4.6, Leading zero omitted, Abs format (unit mm)*
G04 Created by KiCad (PCBNEW 9.0.7) date 2026-03-17 22:26:58*
%MOMM*%
%LPD*%
G01*
G04 APERTURE LIST*
%ADD10C,0.150000*%
%ADD11C,0.120000*%
G04 APERTURE END LIST*
D10*
X148833333Y-92454819D02*
X148500000Y-91978628D01*
X148261905Y-92454819D02*
X148261905Y-91454819D01*
X148261905Y-91454819D02*
X148642857Y-91454819D01*
X148642857Y-91454819D02*
X148738095Y-91502438D01*
X148738095Y-91502438D02*
X148785714Y-91550057D01*
X148785714Y-91550057D02*
X148833333Y-91645295D01*
X148833333Y-91645295D02*
X148833333Y-91788152D01*
X148833333Y-91788152D02*
X148785714Y-91883390D01*
X148785714Y-91883390D02*
X148738095Y-91931009D01*
X148738095Y-91931009D02*
X148642857Y-91978628D01*
X148642857Y-91978628D02*
X148261905Y-91978628D01*
X149690476Y-91454819D02*
X149500000Y-91454819D01*
X149500000Y-91454819D02*
X149404762Y-91502438D01*
X149404762Y-91502438D02*
X149357143Y-91550057D01*
X149357143Y-91550057D02*
X149261905Y-91692914D01*
X149261905Y-91692914D02*
X149214286Y-91883390D01*
X149214286Y-91883390D02*
X149214286Y-92264342D01*
X149214286Y-92264342D02*
X149261905Y-92359580D01*
X149261905Y-92359580D02*
X149309524Y-92407200D01*
X149309524Y-92407200D02*
X149404762Y-92454819D01*
X149404762Y-92454819D02*
X149595238Y-92454819D01*
X149595238Y-92454819D02*
X149690476Y-92407200D01*
X149690476Y-92407200D02*
X149738095Y-92359580D01*
X149738095Y-92359580D02*
X149785714Y-92264342D01*
X149785714Y-92264342D02*
X149785714Y-92026247D01*
X149785714Y-92026247D02*
X149738095Y-91931009D01*
X149738095Y-91931009D02*
X149690476Y-91883390D01*
X149690476Y-91883390D02*
X149595238Y-91835771D01*
X149595238Y-91835771D02*
X149404762Y-91835771D01*
X149404762Y-91835771D02*
X149309524Y-91883390D01*
X149309524Y-91883390D02*
X149261905Y-91931009D01*
X149261905Y-91931009D02*
X149214286Y-92026247D01*
X147333333Y-86454819D02*
X147000000Y-85978628D01*
X146761905Y-86454819D02*
X146761905Y-85454819D01*
X146761905Y-85454819D02*
X147142857Y-85454819D01*
X147142857Y-85454819D02*
X147238095Y-85502438D01*
X147238095Y-85502438D02*
X147285714Y-85550057D01*
X147285714Y-85550057D02*
X147333333Y-85645295D01*
X147333333Y-85645295D02*
X147333333Y-85788152D01*
X147333333Y-85788152D02*
X147285714Y-85883390D01*
X147285714Y-85883390D02*
X147238095Y-85931009D01*
X147238095Y-85931009D02*
X147142857Y-85978628D01*
X147142857Y-85978628D02*
X146761905Y-85978628D01*
X148238095Y-85454819D02*
X147761905Y-85454819D01*
X147761905Y-85454819D02*
X147714286Y-85931009D01*
X147714286Y-85931009D02*
X147761905Y-85883390D01*
X147761905Y-85883390D02*
X147857143Y-85835771D01*
X147857143Y-85835771D02*
X148095238Y-85835771D01*
X148095238Y-85835771D02*
X148190476Y-85883390D01*
X148190476Y-85883390D02*
X148238095Y-85931009D01*
X148238095Y-85931009D02*
X148285714Y-86026247D01*
X148285714Y-86026247D02*
X148285714Y-86264342D01*
X148285714Y-86264342D02*
X148238095Y-86359580D01*
X148238095Y-86359580D02*
X148190476Y-86407200D01*
X148190476Y-86407200D02*
X148095238Y-86454819D01*
X148095238Y-86454819D02*
X147857143Y-86454819D01*
X147857143Y-86454819D02*
X147761905Y-86407200D01*
X147761905Y-86407200D02*
X147714286Y-86359580D01*
X146833333Y-83454819D02*
X146500000Y-82978628D01*
X146261905Y-83454819D02*
X146261905Y-82454819D01*
X146261905Y-82454819D02*
X146642857Y-82454819D01*
X146642857Y-82454819D02*
X146738095Y-82502438D01*
X146738095Y-82502438D02*
X146785714Y-82550057D01*
X146785714Y-82550057D02*
X146833333Y-82645295D01*
X146833333Y-82645295D02*
X146833333Y-82788152D01*
X146833333Y-82788152D02*
X146785714Y-82883390D01*
X146785714Y-82883390D02*
X146738095Y-82931009D01*
X146738095Y-82931009D02*
X146642857Y-82978628D01*
X146642857Y-82978628D02*
X146261905Y-82978628D01*
X147690476Y-82788152D02*
X147690476Y-83454819D01*
X147452381Y-82407200D02*
X147214286Y-83121485D01*
X147214286Y-83121485D02*
X147833333Y-83121485D01*
X145333333Y-71454819D02*
X145000000Y-70978628D01*
X144761905Y-71454819D02*
X144761905Y-70454819D01*
X144761905Y-70454819D02*
X145142857Y-70454819D01*
X145142857Y-70454819D02*
X145238095Y-70502438D01*
X145238095Y-70502438D02*
X145285714Y-70550057D01*
X145285714Y-70550057D02*
X145333333Y-70645295D01*
X145333333Y-70645295D02*
X145333333Y-70788152D01*
X145333333Y-70788152D02*
X145285714Y-70883390D01*
X145285714Y-70883390D02*
X145238095Y-70931009D01*
X145238095Y-70931009D02*
X145142857Y-70978628D01*
X145142857Y-70978628D02*
X144761905Y-70978628D01*
X145666667Y-70454819D02*
X146285714Y-70454819D01*
X146285714Y-70454819D02*
X145952381Y-70835771D01*
X145952381Y-70835771D02*
X146095238Y-70835771D01*
X146095238Y-70835771D02*
X146190476Y-70883390D01*
X146190476Y-70883390D02*
X146238095Y-70931009D01*
X146238095Y-70931009D02*
X146285714Y-71026247D01*
X146285714Y-71026247D02*
X146285714Y-71264342D01*
X146285714Y-71264342D02*
X146238095Y-71359580D01*
X146238095Y-71359580D02*
X146190476Y-71407200D01*
X146190476Y-71407200D02*
X146095238Y-71454819D01*
X146095238Y-71454819D02*
X145809524Y-71454819D01*
X145809524Y-71454819D02*
X145714286Y-71407200D01*
X145714286Y-71407200D02*
X145666667Y-71359580D01*
X145833333Y-72954819D02*
X145500000Y-72478628D01*
X145261905Y-72954819D02*
X145261905Y-71954819D01*
X145261905Y-71954819D02*
X145642857Y-71954819D01*
X145642857Y-71954819D02*
X145738095Y-72002438D01*
X145738095Y-72002438D02*
X145785714Y-72050057D01*
X145785714Y-72050057D02*
X145833333Y-72145295D01*
X145833333Y-72145295D02*
X145833333Y-72288152D01*
X145833333Y-72288152D02*
X145785714Y-72383390D01*
X145785714Y-72383390D02*
X145738095Y-72431009D01*
X145738095Y-72431009D02*
X145642857Y-72478628D01*
X145642857Y-72478628D02*
X145261905Y-72478628D01*
X146214286Y-72050057D02*
X146261905Y-72002438D01*
X146261905Y-72002438D02*
X146357143Y-71954819D01*
X146357143Y-71954819D02*
X146595238Y-71954819D01*
X146595238Y-71954819D02*
X146690476Y-72002438D01*
X146690476Y-72002438D02*
X146738095Y-72050057D01*
X146738095Y-72050057D02*
X146785714Y-72145295D01*
X146785714Y-72145295D02*
X146785714Y-72240533D01*
X146785714Y-72240533D02*
X146738095Y-72383390D01*
X146738095Y-72383390D02*
X146166667Y-72954819D01*
X146166667Y-72954819D02*
X146785714Y-72954819D01*
X140870833Y-66274819D02*
X140537500Y-65798628D01*
X140299405Y-66274819D02*
X140299405Y-65274819D01*
X140299405Y-65274819D02*
X140680357Y-65274819D01*
X140680357Y-65274819D02*
X140775595Y-65322438D01*
X140775595Y-65322438D02*
X140823214Y-65370057D01*
X140823214Y-65370057D02*
X140870833Y-65465295D01*
X140870833Y-65465295D02*
X140870833Y-65608152D01*
X140870833Y-65608152D02*
X140823214Y-65703390D01*
X140823214Y-65703390D02*
X140775595Y-65751009D01*
X140775595Y-65751009D02*
X140680357Y-65798628D01*
X140680357Y-65798628D02*
X140299405Y-65798628D01*
X141823214Y-66274819D02*
X141251786Y-66274819D01*
X141537500Y-66274819D02*
X141537500Y-65274819D01*
X141537500Y-65274819D02*
X141442262Y-65417676D01*
X141442262Y-65417676D02*
X141347024Y-65512914D01*
X141347024Y-65512914D02*
X141251786Y-65560533D01*
X149416183Y-66653979D02*
X149320945Y-66606360D01*
X149320945Y-66606360D02*
X149225707Y-66511122D01*
X149225707Y-66511122D02*
X149082850Y-66368264D01*
X149082850Y-66368264D02*
X148987612Y-66320645D01*
X148987612Y-66320645D02*
X148892374Y-66320645D01*
X148939993Y-66558741D02*
X148844755Y-66511122D01*
X148844755Y-66511122D02*
X148749517Y-66415883D01*
X148749517Y-66415883D02*
X148701898Y-66225407D01*
X148701898Y-66225407D02*
X148701898Y-65892074D01*
X148701898Y-65892074D02*
X148749517Y-65701598D01*
X148749517Y-65701598D02*
X148844755Y-65606360D01*
X148844755Y-65606360D02*
X148939993Y-65558741D01*
X148939993Y-65558741D02*
X149130469Y-65558741D01*
X149130469Y-65558741D02*
X149225707Y-65606360D01*
X149225707Y-65606360D02*
X149320945Y-65701598D01*
X149320945Y-65701598D02*
X149368564Y-65892074D01*
X149368564Y-65892074D02*
X149368564Y-66225407D01*
X149368564Y-66225407D02*
X149320945Y-66415883D01*
X149320945Y-66415883D02*
X149225707Y-66511122D01*
X149225707Y-66511122D02*
X149130469Y-66558741D01*
X149130469Y-66558741D02*
X148939993Y-66558741D01*
X150320945Y-66558741D02*
X149749517Y-66558741D01*
X150035231Y-66558741D02*
X150035231Y-65558741D01*
X150035231Y-65558741D02*
X149939993Y-65701598D01*
X149939993Y-65701598D02*
X149844755Y-65796836D01*
X149844755Y-65796836D02*
X149749517Y-65844455D01*
X127833333Y-92359580D02*
X127785714Y-92407200D01*
X127785714Y-92407200D02*
X127642857Y-92454819D01*
X127642857Y-92454819D02*
X127547619Y-92454819D01*
X127547619Y-92454819D02*
X127404762Y-92407200D01*
X127404762Y-92407200D02*
X127309524Y-92311961D01*
X127309524Y-92311961D02*
X127261905Y-92216723D01*
X127261905Y-92216723D02*
X127214286Y-92026247D01*
X127214286Y-92026247D02*
X127214286Y-91883390D01*
X127214286Y-91883390D02*
X127261905Y-91692914D01*
X127261905Y-91692914D02*
X127309524Y-91597676D01*
X127309524Y-91597676D02*
X127404762Y-91502438D01*
X127404762Y-91502438D02*
X127547619Y-91454819D01*
X127547619Y-91454819D02*
X127642857Y-91454819D01*
X127642857Y-91454819D02*
X127785714Y-91502438D01*
X127785714Y-91502438D02*
X127833333Y-91550057D01*
X128738095Y-91454819D02*
X128261905Y-91454819D01*
X128261905Y-91454819D02*
X128214286Y-91931009D01*
X128214286Y-91931009D02*
X128261905Y-91883390D01*
X128261905Y-91883390D02*
X128357143Y-91835771D01*
X128357143Y-91835771D02*
X128595238Y-91835771D01*
X128595238Y-91835771D02*
X128690476Y-91883390D01*
X128690476Y-91883390D02*
X128738095Y-91931009D01*
X128738095Y-91931009D02*
X128785714Y-92026247D01*
X128785714Y-92026247D02*
X128785714Y-92264342D01*
X128785714Y-92264342D02*
X128738095Y-92359580D01*
X128738095Y-92359580D02*
X128690476Y-92407200D01*
X128690476Y-92407200D02*
X128595238Y-92454819D01*
X128595238Y-92454819D02*
X128357143Y-92454819D01*
X128357143Y-92454819D02*
X128261905Y-92407200D01*
X128261905Y-92407200D02*
X128214286Y-92359580D01*
X130333333Y-85859580D02*
X130285714Y-85907200D01*
X130285714Y-85907200D02*
X130142857Y-85954819D01*
X130142857Y-85954819D02*
X130047619Y-85954819D01*
X130047619Y-85954819D02*
X129904762Y-85907200D01*
X129904762Y-85907200D02*
X129809524Y-85811961D01*
X129809524Y-85811961D02*
X129761905Y-85716723D01*
X129761905Y-85716723D02*
X129714286Y-85526247D01*
X129714286Y-85526247D02*
X129714286Y-85383390D01*
X129714286Y-85383390D02*
X129761905Y-85192914D01*
X129761905Y-85192914D02*
X129809524Y-85097676D01*
X129809524Y-85097676D02*
X129904762Y-85002438D01*
X129904762Y-85002438D02*
X130047619Y-84954819D01*
X130047619Y-84954819D02*
X130142857Y-84954819D01*
X130142857Y-84954819D02*
X130285714Y-85002438D01*
X130285714Y-85002438D02*
X130333333Y-85050057D01*
X131190476Y-85288152D02*
X131190476Y-85954819D01*
X130952381Y-84907200D02*
X130714286Y-85621485D01*
X130714286Y-85621485D02*
X131333333Y-85621485D01*
X128833333Y-78859580D02*
X128785714Y-78907200D01*
X128785714Y-78907200D02*
X128642857Y-78954819D01*
X128642857Y-78954819D02*
X128547619Y-78954819D01*
X128547619Y-78954819D02*
X128404762Y-78907200D01*
X128404762Y-78907200D02*
X128309524Y-78811961D01*
X128309524Y-78811961D02*
X128261905Y-78716723D01*
X128261905Y-78716723D02*
X128214286Y-78526247D01*
X128214286Y-78526247D02*
X128214286Y-78383390D01*
X128214286Y-78383390D02*
X128261905Y-78192914D01*
X128261905Y-78192914D02*
X128309524Y-78097676D01*
X128309524Y-78097676D02*
X128404762Y-78002438D01*
X128404762Y-78002438D02*
X128547619Y-77954819D01*
X128547619Y-77954819D02*
X128642857Y-77954819D01*
X128642857Y-77954819D02*
X128785714Y-78002438D01*
X128785714Y-78002438D02*
X128833333Y-78050057D01*
X129166667Y-77954819D02*
X129785714Y-77954819D01*
X129785714Y-77954819D02*
X129452381Y-78335771D01*
X129452381Y-78335771D02*
X129595238Y-78335771D01*
X129595238Y-78335771D02*
X129690476Y-78383390D01*
X129690476Y-78383390D02*
X129738095Y-78431009D01*
X129738095Y-78431009D02*
X129785714Y-78526247D01*
X129785714Y-78526247D02*
X129785714Y-78764342D01*
X129785714Y-78764342D02*
X129738095Y-78859580D01*
X129738095Y-78859580D02*
X129690476Y-78907200D01*
X129690476Y-78907200D02*
X129595238Y-78954819D01*
X129595238Y-78954819D02*
X129309524Y-78954819D01*
X129309524Y-78954819D02*
X129214286Y-78907200D01*
X129214286Y-78907200D02*
X129166667Y-78859580D01*
X129333333Y-71359580D02*
X129285714Y-71407200D01*
X129285714Y-71407200D02*
X129142857Y-71454819D01*
X129142857Y-71454819D02*
X129047619Y-71454819D01*
X129047619Y-71454819D02*
X128904762Y-71407200D01*
X128904762Y-71407200D02*
X128809524Y-71311961D01*
X128809524Y-71311961D02*
X128761905Y-71216723D01*
X128761905Y-71216723D02*
X128714286Y-71026247D01*
X128714286Y-71026247D02*
X128714286Y-70883390D01*
X128714286Y-70883390D02*
X128761905Y-70692914D01*
X128761905Y-70692914D02*
X128809524Y-70597676D01*
X128809524Y-70597676D02*
X128904762Y-70502438D01*
X128904762Y-70502438D02*
X129047619Y-70454819D01*
X129047619Y-70454819D02*
X129142857Y-70454819D01*
X129142857Y-70454819D02*
X129285714Y-70502438D01*
X129285714Y-70502438D02*
X129333333Y-70550057D01*
X129714286Y-70550057D02*
X129761905Y-70502438D01*
X129761905Y-70502438D02*
X129857143Y-70454819D01*
X129857143Y-70454819D02*
X130095238Y-70454819D01*
X130095238Y-70454819D02*
X130190476Y-70502438D01*
X130190476Y-70502438D02*
X130238095Y-70550057D01*
X130238095Y-70550057D02*
X130285714Y-70645295D01*
X130285714Y-70645295D02*
X130285714Y-70740533D01*
X130285714Y-70740533D02*
X130238095Y-70883390D01*
X130238095Y-70883390D02*
X129666667Y-71454819D01*
X129666667Y-71454819D02*
X130285714Y-71454819D01*
X132833333Y-65879580D02*
X132785714Y-65927200D01*
X132785714Y-65927200D02*
X132642857Y-65974819D01*
X132642857Y-65974819D02*
X132547619Y-65974819D01*
X132547619Y-65974819D02*
X132404762Y-65927200D01*
X132404762Y-65927200D02*
X132309524Y-65831961D01*
X132309524Y-65831961D02*
X132261905Y-65736723D01*
X132261905Y-65736723D02*
X132214286Y-65546247D01*
X132214286Y-65546247D02*
X132214286Y-65403390D01*
X132214286Y-65403390D02*
X132261905Y-65212914D01*
X132261905Y-65212914D02*
X132309524Y-65117676D01*
X132309524Y-65117676D02*
X132404762Y-65022438D01*
X132404762Y-65022438D02*
X132547619Y-64974819D01*
X132547619Y-64974819D02*
X132642857Y-64974819D01*
X132642857Y-64974819D02*
X132785714Y-65022438D01*
X132785714Y-65022438D02*
X132833333Y-65070057D01*
X133785714Y-65974819D02*
X133214286Y-65974819D01*
X133500000Y-65974819D02*
X133500000Y-64974819D01*
X133500000Y-64974819D02*
X133404762Y-65117676D01*
X133404762Y-65117676D02*
X133309524Y-65212914D01*
X133309524Y-65212914D02*
X133214286Y-65260533D01*
D11*
%TO.C,R6*%
X138860436Y-91290000D02*
X143214564Y-91290000D01*
X138860436Y-94710000D02*
X143214564Y-94710000D01*
%TO.C,R5*%
X138860436Y-86380000D02*
X143214564Y-86380000D01*
X138860436Y-89800000D02*
X143214564Y-89800000D01*
%TO.C,R4*%
X138860436Y-81470000D02*
X143214564Y-81470000D01*
X138860436Y-84890000D02*
X143214564Y-84890000D01*
%TO.C,R3*%
X138860436Y-76560000D02*
X143214564Y-76560000D01*
X138860436Y-79980000D02*
X143214564Y-79980000D01*
%TO.C,R2*%
X138860436Y-71650000D02*
X143214564Y-71650000D01*
X138860436Y-75070000D02*
X143214564Y-75070000D01*
%TO.C,R1*%
X138860436Y-66740000D02*
X143214564Y-66740000D01*
X138860436Y-70160000D02*
X143214564Y-70160000D01*
%TO.C,Q1*%
X146111314Y-67689621D02*
X146951804Y-68530111D01*
X147087121Y-66713814D02*
X146111314Y-67689621D01*
X147927611Y-67554304D02*
X147087121Y-66713814D01*
X147927611Y-67554304D02*
G75*
G02*
X146951804Y-68530111I1583811J-2559618D01*
G01*
%TO.C,C5*%
X136027500Y-95470000D02*
G75*
G02*
X130787500Y-95470000I-2620000J0D01*
G01*
X130787500Y-95470000D02*
G75*
G02*
X136027500Y-95470000I2620000J0D01*
G01*
%TO.C,C4*%
X136027500Y-88920000D02*
G75*
G02*
X130787500Y-88920000I-2620000J0D01*
G01*
X130787500Y-88920000D02*
G75*
G02*
X136027500Y-88920000I2620000J0D01*
G01*
%TO.C,C3*%
X136027500Y-82370000D02*
G75*
G02*
X130787500Y-82370000I-2620000J0D01*
G01*
X130787500Y-82370000D02*
G75*
G02*
X136027500Y-82370000I2620000J0D01*
G01*
%TO.C,C2*%
X136027500Y-75820000D02*
G75*
G02*
X130787500Y-75820000I-2620000J0D01*
G01*
X130787500Y-75820000D02*
G75*
G02*
X136027500Y-75820000I2620000J0D01*
G01*
%TO.C,C1*%
X135620000Y-69270000D02*
G75*
G02*
X130380000Y-69270000I-2620000J0D01*
G01*
X130380000Y-69270000D02*
G75*
G02*
X135620000Y-69270000I2620000J0D01*
G01*
%TD*%
M02*
