%TF.GenerationSoftware,KiCad,Pcbnew,9.0.7*%
%TF.CreationDate,2026-03-17T22:26:58+05:30*%
%TF.ProjectId,rcphase,72637068-6173-4652-9e6b-696361645f70,rev?*%
%TF.SameCoordinates,Original*%
%TF.FileFunction,Copper,L1,Top*%
%TF.FilePolarity,Positive*%
%FSLAX46Y46*%
G04 Gerber Fmt 4.6, Leading zero omitted, Abs format (unit mm)*
G04 Created by KiCad (PCBNEW 9.0.7) date 2026-03-17 22:26:58*
%MOMM*%
%LPD*%
G01*
G04 APERTURE LIST*
G04 Aperture macros list*
%AMRoundRect*
0 Rectangle with rounded corners*
0 $1 Rounding radius*
0 $2 $3 $4 $5 $6 $7 $8 $9 X,Y pos of 4 corners*
0 Add a 4 corners polygon primitive as box body*
4,1,4,$2,$3,$4,$5,$6,$7,$8,$9,$2,$3,0*
0 Add four circle primitives for the rounded corners*
1,1,$1+$1,$2,$3*
1,1,$1+$1,$4,$5*
1,1,$1+$1,$6,$7*
1,1,$1+$1,$8,$9*
0 Add four rect primitives between the rounded corners*
20,1,$1+$1,$2,$3,$4,$5,0*
20,1,$1+$1,$4,$5,$6,$7,0*
20,1,$1+$1,$6,$7,$8,$9,0*
20,1,$1+$1,$8,$9,$2,$3,0*%
G04 Aperture macros list end*
%TA.AperFunction,SMDPad,CuDef*%
%ADD10RoundRect,0.250000X-0.362500X-1.425000X0.362500X-1.425000X0.362500X1.425000X-0.362500X1.425000X0*%
%TD*%
%TA.AperFunction,ComponentPad*%
%ADD11O,1.600000X1.200000*%
%TD*%
%TA.AperFunction,ComponentPad*%
%ADD12C,1.200000*%
%TD*%
%TA.AperFunction,ComponentPad*%
%ADD13C,1.600000*%
%TD*%
%TA.AperFunction,Conductor*%
%ADD14C,0.200000*%
%TD*%
G04 APERTURE END LIST*
D10*
%TO.P,R6,1*%
%TO.N,VCC*%
X138075000Y-93000000D03*
%TO.P,R6,2*%
%TO.N,Net-(Q1-C)*%
X144000000Y-93000000D03*
%TD*%
%TO.P,R5,1*%
%TO.N,VCC*%
X138075000Y-88090000D03*
%TO.P,R5,2*%
%TO.N,Net-(Q1-B)*%
X144000000Y-88090000D03*
%TD*%
%TO.P,R4,1*%
%TO.N,Net-(Q1-E)*%
X138075000Y-83180000D03*
%TO.P,R4,2*%
%TO.N,GND*%
X144000000Y-83180000D03*
%TD*%
%TO.P,R3,1*%
%TO.N,Net-(Q1-B)*%
X138075000Y-78270000D03*
%TO.P,R3,2*%
%TO.N,GND*%
X144000000Y-78270000D03*
%TD*%
%TO.P,R2,1*%
%TO.N,Net-(C2-Pad2)*%
X138075000Y-73360000D03*
%TO.P,R2,2*%
%TO.N,GND*%
X144000000Y-73360000D03*
%TD*%
%TO.P,R1,1*%
%TO.N,Net-(C1-Pad2)*%
X138075000Y-68450000D03*
%TO.P,R1,2*%
%TO.N,GND*%
X144000000Y-68450000D03*
%TD*%
D11*
%TO.P,Q1,1,E*%
%TO.N,Net-(Q1-E)*%
X148241422Y-70113922D03*
D12*
%TO.P,Q1,2,B*%
%TO.N,Net-(Q1-B)*%
X149511422Y-71383922D03*
%TO.P,Q1,3,C*%
%TO.N,Net-(Q1-C)*%
X150781422Y-70113922D03*
%TD*%
D13*
%TO.P,C5,1*%
%TO.N,Net-(Q1-C)*%
X132407500Y-95470000D03*
%TO.P,C5,2*%
%TO.N,unconnected-(C5-Pad2)*%
X134407500Y-95470000D03*
%TD*%
%TO.P,C4,1*%
%TO.N,GND*%
X132407500Y-88920000D03*
%TO.P,C4,2*%
%TO.N,Net-(Q1-E)*%
X134407500Y-88920000D03*
%TD*%
%TO.P,C3,1*%
%TO.N,Net-(C2-Pad2)*%
X132407500Y-82370000D03*
%TO.P,C3,2*%
%TO.N,Net-(Q1-B)*%
X134407500Y-82370000D03*
%TD*%
%TO.P,C2,1*%
%TO.N,Net-(C1-Pad2)*%
X132407500Y-75820000D03*
%TO.P,C2,2*%
%TO.N,Net-(C2-Pad2)*%
X134407500Y-75820000D03*
%TD*%
%TO.P,C1,1*%
%TO.N,Net-(Q1-C)*%
X132000000Y-69270000D03*
%TO.P,C1,2*%
%TO.N,Net-(C1-Pad2)*%
X134000000Y-69270000D03*
%TD*%
D14*
%TO.N,Net-(C2-Pad2)*%
X132407500Y-82370000D02*
X132407500Y-77820000D01*
X132407500Y-77820000D02*
X134407500Y-75820000D01*
%TO.N,Net-(Q1-B)*%
X134407500Y-82370000D02*
X138075000Y-78702500D01*
X138075000Y-78702500D02*
X138075000Y-78270000D01*
%TO.N,Net-(C2-Pad2)*%
X134407500Y-75820000D02*
X135615000Y-75820000D01*
X135615000Y-75820000D02*
X138075000Y-73360000D01*
%TO.N,Net-(C1-Pad2)*%
X134407500Y-69270000D02*
X134407500Y-73820000D01*
X134407500Y-73820000D02*
X132407500Y-75820000D01*
X134407500Y-69270000D02*
X137255000Y-69270000D01*
X137255000Y-69270000D02*
X138075000Y-68450000D01*
%TO.N,Net-(Q1-B)*%
X134407500Y-82370000D02*
X137193500Y-85156000D01*
X137193500Y-85156000D02*
X138672660Y-85156000D01*
X138672660Y-85156000D02*
X143582660Y-80246000D01*
X143582660Y-80246000D02*
X144597660Y-80246000D01*
X144597660Y-80246000D02*
X149511422Y-75332238D01*
X149511422Y-75332238D02*
X149511422Y-71383922D01*
X144000000Y-88090000D02*
X141066000Y-85156000D01*
X141066000Y-85156000D02*
X137193500Y-85156000D01*
%TO.N,VCC*%
X138075000Y-88090000D02*
X138075000Y-93000000D01*
%TO.N,Net-(Q1-C)*%
X144000000Y-93000000D02*
X150781422Y-86218578D01*
X150781422Y-86218578D02*
X150781422Y-70113922D01*
X144000000Y-93000000D02*
X138000000Y-99000000D01*
X138000000Y-99000000D02*
X135937500Y-99000000D01*
X135937500Y-99000000D02*
X132407500Y-95470000D01*
%TO.N,Net-(Q1-E)*%
X148241422Y-70113922D02*
X148241422Y-72650238D01*
X148241422Y-72650238D02*
X144597660Y-76294000D01*
X138075000Y-81505000D02*
X138075000Y-83180000D01*
X144597660Y-76294000D02*
X143286000Y-76294000D01*
X143286000Y-76294000D02*
X138075000Y-81505000D01*
%TD*%
M02*
